HIERARCHY
ROOT Hips
{
	OFFSET 0.00000 0.00000 0.00000
	CHANNELS 6 Xposition Yposition Zposition Zrotation Yrotation Xrotation 
	JOINT LHipJoint
	{
		OFFSET 0 0 0
		CHANNELS 3 Zrotation Yrotation Xrotation
		JOINT LeftHip
		{
			OFFSET 1.56857 -1.73443 1.15205
			CHANNELS 3 Zrotation Yrotation Xrotation
			JOINT LeftKnee
			{
				OFFSET 2.39362 -6.57643 0.00000
				CHANNELS 3 Zrotation Yrotation Xrotation
				JOINT LeftAnkle
				{
					OFFSET 2.50952 -6.89485 0.00000
					CHANNELS 3 Zrotation Yrotation Xrotation
					JOINT LeftToe
					{
						OFFSET 0.17171 -0.47178 1.88682
						CHANNELS 3 Zrotation Yrotation Xrotation
						End Site
						{
							OFFSET 0.00000 -0.00000 0.98146
						}
					}
				}
			}
		}
	}
	JOINT RHipJoint
	{
		OFFSET 0 0 0
		CHANNELS 3 Zrotation Yrotation Xrotation
		JOINT RightHip
		{
			OFFSET -1.28153 -1.73443 1.15205
			CHANNELS 3 Zrotation Yrotation Xrotation
			JOINT RightKnee
			{
				OFFSET -2.26861 -6.23296 0.00000
				CHANNELS 3 Zrotation Yrotation Xrotation
				JOINT RightAnkle
				{
					OFFSET -2.54143 -6.98254 0.00000
					CHANNELS 3 Zrotation Yrotation Xrotation
					JOINT RightToe
					{
						OFFSET -0.23309 -0.64041 1.93119
						CHANNELS 3 Zrotation Yrotation Xrotation
						End Site
						{
							OFFSET -0.00000 -0.00000 1.02013
						}
					}
				}
			}
		}
	}
	JOINT lowerback
	{
		OFFSET 0 0 0
		CHANNELS 3 Zrotation Yrotation Xrotation
		JOINT Chest
		{
			OFFSET -0.07096 2.10460 -0.27878
			CHANNELS 3 Zrotation Yrotation Xrotation
			JOINT Chest2
			{
				OFFSET -0.00826 2.13662 -0.08279
				CHANNELS 3 Zrotation Yrotation Xrotation
				JOINT lowerneck
				{
					OFFSET 0 0 0
					CHANNELS 3 Zrotation Yrotation Xrotation
					JOINT Neck
					{
						OFFSET 0.03239 1.77799 0.24435
						CHANNELS 3 Zrotation Yrotation Xrotation
						JOINT Head
						{
							OFFSET 0.01026 1.74194 -0.49664
							CHANNELS 3 Zrotation Yrotation Xrotation
							End Site
							{
								OFFSET 0.00170 1.83057 -0.19653
							}
						}
					}
				}
				JOINT LeftCollar
				{
					OFFSET 0 0 0
					CHANNELS 3 Zrotation Yrotation Xrotation
					JOINT LeftShoulder
					{
						OFFSET 3.19178 1.35907 -0.31412
CHANNELS 3 Zrotation Xrotation Yrotation
						JOINT LeftElbow
						{
OFFSET 0 -4.852470 -0.000000
CHANNELS 3 Zrotation Xrotation Yrotation
							JOINT LeftWrist
							{
OFFSET 0 -3.555840 0.000000
CHANNELS 3 Zrotation Xrotation Yrotation
								JOINT lhand
								{
									OFFSET 0 0 0
CHANNELS 3 Zrotation Xrotation Yrotation
									JOINT LFingers
									{
OFFSET 0 -0.693200 0.000000
CHANNELS 3 Zrotation Xrotation Yrotation
										End Site
										{
OFFSET 0 -0.558880 0.000000
										}
									}
								}
								JOINT LThumb
								{
OFFSET 0 0.000000 0.000000
CHANNELS 3 Zrotation Xrotation Yrotation
									End Site
									{
OFFSET 0 -0.567410 0.567410
									}
								}
							}
						}
					}
				}
				JOINT RightCollar
				{
					OFFSET 0 0 0
					CHANNELS 3 Zrotation Yrotation Xrotation
					JOINT RightShoulder
					{
						OFFSET -3.28999 1.24191 -0.26899
CHANNELS 3 Zrotation Xrotation Yrotation
						JOINT RightElbow
						{
OFFSET 0 -4.644620 0.000000
CHANNELS 3 Zrotation Xrotation Yrotation
							JOINT RightWrist
							{
OFFSET 0 -3.407030 0.000000
CHANNELS 3 Zrotation Xrotation Yrotation
								JOINT rhand
								{
									OFFSET 0 0 0
CHANNELS 3 Zrotation Xrotation Yrotation
									JOINT RFingers
									{
OFFSET 0 -0.619580 0.000000
CHANNELS 3 Zrotation Xrotation Yrotation
										End Site
										{
OFFSET 0 -0.499520 0.000000
										}
									}
								}
								JOINT RThumb
								{
OFFSET 0 0.000000 0.000000
CHANNELS 3 Zrotation Xrotation Yrotation
									End Site
									{
OFFSET 0 -0.507150 0.507150
									}
								}
							}
						}
					}
				}
			}
		}
	}
}
MOTION
Frames: 14
Frame Time: .0083333
33.5495 17.8562 -1.3675 139.8280 99.6471 132.4420 0.0000 0.0000 0.0000 -8.0384 4.1205 -16.0636 0.5493 4.7482 13.1918 -0.5269 13.4293 -0.3988 0.0474 1.4055 3.8654 0.0000 0.0000 0.0000 25.9556 -6.6450 18.1340 -1.7259 -8.2702 23.5377 -0.0388 5.6021 -4.9898 -0.0508 -1.4541 3.9992 6.5629 6.1392 8.6849 -0.0832 8.8490 -0.0296 -4.6994 4.2714 -3.8675 1.0302 -2.1839 -26.9478 1.0832 -3.7615 24.6482 -0.4335 -1.3485 12.6811 0.0000 -0.0000 0.0000 38.2868 55.1486 -70.2406 97.8924 -59.7633 66.8296 40.3 -46.8054 24.8216 0.0 0.0 0.0 -7.1250 0.0 0.0 6.3933 -1.083 6.5537 0.0000 -0.0000 0.0000 -9.9977 5.9271 47.9593 -119.9348 -56.3273 -85.6046 -25.0293 -11.3859 21.9975 0.0 0.0 0.0 7.1250 0.0 -0.0 4.0275 53.9644 -0.8886
33.8227 17.8749 -1.3773 138.0420 100.2480 131.1390 0.0000 0.0000 0.0000 -7.3527 4.1943 -16.0218 0.3566 3.8365 10.6171 -0.5291 13.3703 -0.6725 0.0884 1.9174 5.2774 0.0000 0.0000 0.0000 26.8449 -5.7208 18.2224 -1.8592 -8.5665 24.4483 -0.0201 5.8720 -4.6629 -0.0826 -1.8536 5.1011 7.1478 6.2085 8.1667 -0.0579 8.9701 -0.3478 -4.9510 4.3139 -3.8152 0.7419 -2.3788 -27.8101 1.5301 -4.0881 25.3947 -0.2884 -1.4276 13.1713 -0.0000 0.0000 0.0000 39.1144 55.9217 -70.3613 99.1885 -59.6786 67.9489 39.9155 -46.2854 24.8067 0.0 0.0 0.0 -7.1250 0.0 0.0 6.1732 -0.9349 6.3096 -0.0000 0.0000 0.0000 -10.3226 5.7688 48.473 -120.9281 -56.0575 -86.43 -24.3941 -11.9434 22.1098 0.0 0.0 0.0 7.1250 0.0 -0.0 4.7231 53.9589 -1.0419
34.1008 17.8730 -1.3899 136.6200 100.7450 130.2220 0.0000 0.0000 0.0000 -6.8531 4.2773 -16.1751 0.2355 3.1233 8.6223 -0.5114 13.2613 -0.3138 0.0471 1.4008 3.8523 0.0000 0.0000 0.0000 27.6200 -4.7951 18.1409 -2.0560 -8.9818 25.7384 -0.0104 6.1660 -4.5951 -0.0993 -2.0324 5.5953 7.6320 6.2752 7.4368 -0.0149 9.0495 -0.5014 -5.0834 4.3564 -3.4934 0.8605 -2.3815 -27.7523 1.4035 -4.1004 25.1694 -0.3580 -1.4474 13.0611 0.0000 -0.0000 0.0000 39.5007 56.398 -70.155 100.0016 -59.6186 68.6506 39.526 -45.8241 24.9413 0.0 0.0 0.0 -7.1250 0.0 0.0 5.9167 -0.9605 6.0472 0.0000 -0.0000 0.0000 -10.7145 5.4474 49.0854 -122.0890 -55.7271 -87.3912 -24.2493 -13.2935 21.4391 0.0 0.0 0.0 7.1250 0.0 -0.0 4.6658 53.2209 -0.9451
34.3791 17.8554 -1.4043 136.7540 101.0650 130.7620 0.0000 0.0000 0.0000 -6.7359 4.3768 -16.2573 0.1586 2.5662 7.0733 -0.5274 13.4950 -0.2236 0.0375 1.2502 3.4374 0.0000 0.0000 0.0000 28.0194 -3.7540 18.0013 -2.3275 -9.5173 27.4273 -0.0175 6.5674 -5.0338 -0.0741 -1.7566 4.8335 7.8091 6.3770 6.7455 -0.0390 9.1412 -0.6025 -5.1208 4.4124 -3.1703 1.1781 -2.4169 -28.2539 0.9455 -4.1669 25.4475 -0.6111 -1.5032 13.2507 0.0000 -0.0000 0.0000 39.8833 56.8357 -70.0039 100.6703 -59.5654 69.2272 39.1927 -45.2761 25.0385 0.0 0.0 0.0 -7.1250 0.0 0.0 5.7013 -0.9623 5.8249 0.0000 -0.0000 0.0000 -10.9653 5.0739 49.3938 -123.0345 -55.4456 -88.1712 -23.5912 -13.9776 21.2677 0.0 0.0 0.0 7.1250 0.0 -0.0 5.2878 52.9158 -1.0322
34.6472 17.8243 -1.4169 138.3160 101.2700 132.5190 0.0000 0.0000 0.0000 -6.8526 4.4736 -16.1802 0.1159 2.1951 6.0452 -0.5812 14.0874 -0.4259 0.0427 1.3343 3.6692 0.0000 0.0000 0.0000 28.0879 -2.6604 17.9056 -2.6617 -10.1261 29.3860 -0.0417 6.8250 -5.7407 -0.0372 -1.2447 3.4223 7.6469 6.4417 6.4956 -0.1304 9.1956 -0.7786 -5.1110 4.4343 -3.2173 1.3567 -2.2557 -28.1349 0.9492 -4.0107 25.2335 -0.6056 -1.4234 13.1365 -0.0000 0.0000 0.0000 40.1607 57.48 -69.704 101.4709 -59.4969 69.9173 38.8554 -44.604 25.0569 0.0 0.0 0.0 -7.1250 0.0 0.0 5.5007 -0.8726 5.6097 -0.0000 0.0000 0.0000 -11.0142 4.9168 49.7502 -123.9726 -55.1549 -88.9425 -22.8087 -14.3243 21.1822 0.0 0.0 0.0 7.1250 0.0 -0.0 6.0573 52.681 -1.1483
34.9107 17.7769 -1.4312 139.4530 101.6280 133.7500 0.0000 0.0000 0.0000 -6.8143 4.8879 -16.3082 0.1066 2.1048 5.7953 -0.6335 14.6443 -0.5933 0.0374 1.2486 3.4330 0.0000 0.0000 0.0000 28.2850 -1.6696 17.7726 -3.0531 -10.7805 31.5433 -0.0735 6.9125 -6.4490 -0.0104 -0.6572 1.8060 7.6075 6.4674 6.3920 -0.1037 9.2229 -0.8691 -5.0573 4.4440 -3.2611 1.2919 -2.2087 -28.3752 1.1397 -3.9831 25.1320 -0.5177 -1.3914 13.1487 -0.0000 0.0000 0.0000 39.9092 57.9732 -69.0389 102.1359 -59.4361 70.4901 38.6118 -44.1186 25.2552 0.0 0.0 0.0 -7.1250 0.0 0.0 5.3157 -1.0217 5.4329 -0.0000 0.0000 0.0000 -11.1141 4.6939 50.2321 -124.8411 -54.8755 -89.6541 -22.428 -15.306 20.068 0.0 0.0 0.0 7.1250 0.0 -0.0 6.1004 51.444 -0.9713
35.1801 17.7135 -1.4490 140.7070 101.8090 135.0340 0.0000 0.0000 0.0000 -7.1111 5.5710 -16.5917 0.1206 2.2391 6.1669 -0.6609 14.9449 -0.6236 0.0271 1.0628 2.9216 0.0000 0.0000 0.0000 28.1408 -1.0053 17.6271 -3.4782 -11.4316 33.7498 -0.1092 7.0397 -7.1929 -0.0003 -0.1069 0.2938 7.4800 6.4379 6.1789 -0.1019 9.1545 -0.8547 -4.9543 4.4181 -3.1555 1.3660 -2.0706 -28.6415 1.0998 -3.8153 24.9878 -0.5159 -1.3206 13.1385 0.0000 0.0000 0.0000 39.3176 58.3317 -68.0972 102.6559 -59.386 70.9378 38.555 -43.6469 25.4434 0.0 0.0 0.0 -7.1250 0.0 0.0 5.2417 -1.2198 5.3745 0.0000 0.0000 0.0000 -11.1549 4.4247 50.6081 -125.6796 -54.596 -90.3388 -21.7789 -15.852 19.355 0.0 0.0 0.0 7.1250 0.0 -0.0 6.5357 50.5864 -0.9031
35.4434 17.6347 -1.4650 142.5140 101.7490 136.7080 0.0000 0.0000 0.0000 -7.6866 6.0590 -16.6549 0.1468 2.4694 6.8048 -0.6743 15.0876 -0.6417 0.0218 0.9532 2.6201 0.0000 0.0000 0.0000 27.5975 -0.6006 17.5034 -3.9298 -12.0664 35.9671 -0.1514 7.0114 -7.9258 -0.0330 1.1726 -3.2239 7.0857 6.3211 6.1947 -0.1467 8.9677 -0.8487 -4.7840 4.3285 -3.2340 1.6896 -1.8601 -28.7279 0.6755 -3.5299 24.8171 -0.6806 -1.2334 13.0681 0.0000 0.0000 0.0000 38.6046 58.7265 -67.0655 103.0492 -59.3467 71.2761 38.6034 -43.2163 25.6686 0.0 0.0 0.0 -7.1250 0.0 0.0 5.2205 -1.4944 5.377 0.0000 0.0000 0.0000 -11.0923 4.4418 51.046 -126.6680 -54.254 -91.1427 -21.2541 -16.139 18.6977 0.0 0.0 0.0 7.1250 0.0 -0.0 6.8628 49.8137 -0.8178
35.6997 17.5369 -1.4823 143.1340 101.8980 137.0640 0.0000 0.0000 0.0000 -7.8334 6.3906 -16.6688 0.2013 2.8894 7.9709 -0.6534 14.8668 -0.6058 0.0279 1.0785 2.9647 0.0000 0.0000 0.0000 27.3536 -0.3413 17.3562 -4.4156 -12.6938 38.2329 -0.1856 6.6986 -8.3865 -0.1783 2.7200 -7.5003 7.0649 6.1949 6.4935 -0.0469 8.8227 -0.7474 -4.6958 4.2554 -3.3325 1.5814 -1.7740 -28.8151 0.5766 -3.3300 24.4068 -0.6615 -1.1841 12.9180 -0.0000 -0.0000 0.0000 37.7088 58.726 -66.0941 103.1119 -59.3403 71.3301 38.8594 -43.0508 26.069 0.0 0.0 0.0 -7.1250 0.0 0.0 5.2800 -2.0387 5.4875 -0.0000 -0.0000 0.0000 -11.0926 4.5052 51.3087 -127.7090 -53.8787 -91.9856 -21.0314 -16.3203 17.9315 0.0 0.0 0.0 7.1250 0.0 -0.0 6.8688 48.9785 -0.6769
35.9554 17.4226 -1.4991 143.7300 102.0770 137.2260 0.0000 0.0000 0.0000 -7.9274 6.7239 -16.7136 0.3044 3.5471 9.8059 -0.6173 14.3553 -0.9295 0.1033 2.0722 5.7052 0.0000 0.0000 0.0000 27.0854 -0.1843 17.3218 -4.9333 -13.3083 40.5339 -0.2225 6.2919 -8.8642 -0.1349 2.3676 -6.5227 7.0353 6.0025 6.9321 0.1140 8.6010 -0.5881 -4.5482 4.1447 -3.4682 1.7988 -1.4656 -29.0138 0.1229 -2.8565 24.1467 -0.7843 -1.0308 12.8400 0.0000 -0.0000 0.0000 36.4058 58.6231 -64.7933 102.9630 -59.3554 71.202 39.1265 -42.7477 26.2122 0.0 0.0 0.0 -7.1250 0.0 0.0 5.4017 -2.2931 5.6383 0.0000 -0.0000 0.0000 -11.1409 4.5304 51.7584 -128.5545 -53.5621 -92.6671 -20.9667 -16.1415 17.4177 0.0 0.0 0.0 7.1250 0.0 -0.0 6.7961 48.4319 -0.5778
36.2047 17.2996 -1.5100 144.7940 102.1900 137.6860 0.0000 0.0000 0.0000 -8.0650 7.1795 -16.5554 0.4330 4.2230 11.7048 -0.5704 13.8071 -0.9101 0.3476 3.7882 10.4815 0.0000 0.0000 0.0000 26.7044 -0.0439 17.3596 -5.4971 -13.9226 42.9284 -0.2730 5.8506 -9.5526 -0.0183 0.8727 -2.3986 6.8232 5.8135 7.6145 0.2763 8.3890 -0.4493 -4.3311 4.0337 -3.7846 1.6414 -1.2331 -28.9678 0.0873 -2.4447 23.7794 -0.6914 -0.8801 12.6892 -0.0000 0.0000 0.0000 35.1372 58.3808 -63.5617 102.7941 -59.3724 71.0567 39.1312 -42.3801 26.1356 0.0 0.0 0.0 -7.1250 0.0 0.0 5.4218 -2.2067 5.6515 -0.0000 0.0000 0.0000 -11.1475 4.7481 52.1845 -129.3495 -53.2545 -93.3055 -21.1264 -15.5161 17.2381 0.0 0.0 0.0 7.1250 0.0 -0.0 6.5976 48.2676 -0.534
36.4589 17.1651 -1.5266 146.0230 102.2770 138.2840 0.0000 0.0000 0.0000 -8.3146 7.6998 -16.1016 0.5526 4.7618 13.2304 -0.4517 12.7959 0.5555 0.7166 5.4095 15.0803 0.0000 0.0000 0.0000 26.1088 -0.0430 17.3435 -6.0864 -14.5116 45.3275 -0.3099 5.4173 -10.0363 -0.0030 0.3544 -0.9738 6.6422 5.6334 8.2926 0.3952 8.1869 -0.2966 -4.1694 3.9289 -4.0696 1.3843 -1.0968 -29.1447 0.2546 -2.1945 23.6578 -0.5383 -0.7728 12.6817 0.0000 0.0000 0.0000 33.9911 57.9397 -62.5101 102.3391 -59.4168 70.665 39.2016 -42.1296 26.11 0.0 0.0 0.0 -7.1250 0.0 0.0 5.4680 -2.2012 5.6996 0.0000 0.0000 0.0000 -11.078 5.1142 52.467 -130.1620 -52.93 -93.9551 -21.3774 -14.7904 17.0987 0.0 0.0 0.0 7.1250 0.0 -0.0 6.3232 48.1584 -0.4945
36.7197 17.0183 -1.5456 147.5460 102.3340 139.0850 0.0000 0.0000 0.0000 -8.7112 8.2657 -15.3773 0.6612 5.2006 14.4817 -0.2377 9.3080 0.3708 0.2854 3.4356 9.4940 0.0000 0.0000 0.0000 25.2829 -0.2282 17.4178 -6.6789 -15.0554 47.6493 -0.3487 4.9390 -10.5517 -0.0100 0.6464 -1.7765 6.4482 5.4697 8.9305 0.4871 7.9969 -0.0787 -4.0154 3.8367 -4.2580 1.2846 -0.8384 -29.0678 0.3852 -1.8226 23.3202 -0.3994 -0.6062 12.5379 -0.0000 0.0000 0.0000 32.9268 57.3047 -61.5945 101.5821 -59.487 70.0131 39.4973 -41.941 26.2098 0.0 0.0 0.0 -7.1250 0.0 0.0 5.6155 -2.4169 5.8751 -0.0000 0.0000 0.0000 -10.9933 5.5291 52.6512 -130.8945 -52.6283 -94.5384 -21.6309 -14.2205 16.8918 0.0 0.0 0.0 7.1250 0.0 -0.0 6.0311 47.9782 -0.4447
36.9727 16.8613 -1.5617 149.8740 102.1760 140.6400 0.0000 0.0000 0.0000 -9.5248 8.9422 -14.7742 0.7868 5.6626 15.8084 -0.1187 6.3465 -0.4456 0.0276 -1.0733 -2.9505 0.0000 0.0000 0.0000 24.0630 -0.4406 17.0273 -7.4528 -15.7016 50.5667 -0.3953 4.6520 -11.1946 -0.0194 0.8994 -2.4721 5.9693 5.2874 9.7077 0.4629 7.7542 0.0796 -3.8383 3.7150 -4.6106 1.6285 -0.6501 -29.1198 -0.1420 -1.5533 23.3239 -0.6092 -0.5331 12.5414 0.0000 -0.0000 0.0000 32.0009 56.5831 -60.7546 100.5171 -59.5779 69.0951 39.8644 -42.004 26.4414 0.0 0.0 0.0 -7.1250 0.0 0.0 5.7728 -2.8107 6.0793 0.0000 -0.0000 0.0000 -10.8054 6.1039 52.8604 -131.5284 -52.3602 -95.0414 -22.0211 -13.7176 16.7018 0.0 0.0 0.0 7.1250 0.0 -0.0 5.6146 47.8347 -0.3938
